<svg width="24.000000" height="24.000000" viewBox="0 0 24 24" fill="none" xmlns="http://www.w3.org/2000/svg" xmlns:xlink="http://www.w3.org/1999/xlink">
	<desc>
			Created with Pixso.
	</desc>
	<defs/>
	<path id="users" d="M15.95 10.01C15.08 10.01 14.37 9.29 14.37 8.41C14.37 7.53 15.08 6.81 15.95 6.81C16.83 6.81 17.54 7.53 17.54 8.41C17.54 9.29 16.83 10.01 15.95 10.01ZM12.51 13.12C12.57 12.36 14.85 12.25 15.13 12.24C15.15 12.24 15.17 12.24 15.19 12.24L16.17 12.24C16.17 12.24 19.12 12.24 19.12 14C19.14 14.27 18.94 14.66 18.72 14.8C18.27 15.11 16.87 15.2 15.16 15.2M9.83 11.04C8.46 11.04 7.34 9.91 7.34 8.52C7.34 7.12 8.46 6 9.83 6C11.22 6 12.33 7.12 12.33 8.52C12.33 9.91 11.22 11.04 9.83 11.04ZM9.87 18C7.39 18 5.97 17.31 5.31 16.87C5 16.66 4.84 16.28 4.87 15.88C4.91 15.45 5.03 15.02 5.17 14.64C5.44 13.91 6.18 13.51 6.95 13.51L12.78 13.51C13.56 13.51 14.3 13.91 14.57 14.64C14.7 15.02 14.82 15.45 14.86 15.88C14.89 16.28 14.74 16.66 14.43 16.87C13.77 17.31 12.34 18 9.87 18Z" stroke="#181B21" stroke-opacity="1.000000" stroke-width="1.000000" stroke-linejoin="round" stroke-linecap="round"/>
</svg>

